# xmcd
#
# Track frame offsets:
#	150
#	24427
#	43705
#	69577
#	87695
#	103922
#	127417
#	140515
#	157495
#	175475
#	194120
#	210180
#
# Disc length: 3028 seconds
#
# Revision: 0
# Processed by: cddbd v1.5PL3 Copyright (c) Steve Scherf et al.
# Submitted via: dBpowerAMP V4.0
#
DISCID=c20bd20c
DTITLE=ZÉ DE ALMEIDA E PAULO NUNES - COISAS DA VAQUEJADA
DYEAR=2002
DGENRE=FORRÓ
TTITLE0=COISAS DA VAQUEJADA
TTITLE1=DESABAFO DE VAQUEIRO
TTITLE2=AYRTON SENA
TTITLE3=MULHER DO SHORT APERTADO
TTITLE4=JESUS É NOSSO AMIGO
TTITLE5=ATIVIDADE
TTITLE6=MULHER PEDACINHO HUMANO
TTITLE7=LINDA MORENA
TTITLE8=SERÁ QUE É
TTITLE9=É VOCÊ QUE ESTOU QUERENDO
TTITLE10=MEU AMOR MEU AMORZINHO
TTITLE11=ELA ESTÁ QUERENDO
EXTD=
EXTT0=
EXTT1=
EXTT2=
EXTT3=
EXTT4=
EXTT5=
EXTT6=
EXTT7=
EXTT8=
EXTT9=
EXTT10=
EXTT11=
PLAYORDER=
